<svg width="13" height="23" viewBox="0 0 13 23" fill="none" xmlns="http://www.w3.org/2000/svg">
<path d="M2 -1.90735e-06C2.13161 -0.000762939 2.26207 0.0244617 2.38391 0.0742264C2.50574 0.123991 2.61656 0.197317 2.71 0.289999L11.29 8.88C11.8518 9.4425 12.1674 10.205 12.1674 11C12.1674 11.795 11.8518 12.5575 11.29 13.12L2.71 21.71C2.52169 21.8983 2.2663 22.0041 2 22.0041C1.7337 22.0041 1.4783 21.8983 1.29 21.71C1.1017 21.5217 0.995907 21.2663 0.995907 21C0.995907 20.7337 1.1017 20.4783 1.29 20.29L9.88 11.71C9.97373 11.617 10.0481 11.5064 10.0989 11.3846C10.1497 11.2627 10.1758 11.132 10.1758 11C10.1758 10.868 10.1497 10.7373 10.0989 10.6154C10.0481 10.4936 9.97373 10.383 9.88 10.29L1.29 1.71C1.19627 1.61703 1.12187 1.50643 1.07111 1.38457C1.02034 1.26272 0.9942 1.13201 0.9942 0.999998C0.9942 0.867987 1.02034 0.73728 1.07111 0.615421C1.12187 0.493563 1.19627 0.382961 1.29 0.289999C1.38344 0.197317 1.49425 0.123991 1.61609 0.0742264C1.73793 0.0244617 1.86839 -0.000762939 2 -1.90735e-06Z" fill="#726DA8"/>
</svg>
